<svg id="Layer_1" enable-background="new 0 0 512 512" height="512" viewBox="0 0 512 512" width="512" xmlns="http://www.w3.org/2000/svg"><g id="_x39_5_x2C__prototype_x2C__art_x2C__design_x2C__seo_x2C__interface"><g id="XMLID_1445_"><path id="XMLID_2387_" d="m211 431h-190v-200h190z" fill="#ececf1"/><circle id="XMLID_2179_" cx="111" cy="341" fill="#25d9f8" r="30"/><path id="XMLID_2178_" d="m301 81h190v200h-190c0-2 0-175.9 0-200z" fill="#ececf1"/><g fill="#4f737c"><path id="XMLID_2177_" d="m491 57.9v23.1h-190v-23.1c0-20.4 16.5-36.9 36.9-36.9h116.1c20.5 0 37 16.5 37 36.9z"/><path id="XMLID_2176_" d="m491 281v23.1c0 20.4-16.5 36.9-36.9 36.9h-116.2c-20.4 0-36.9-16.5-36.9-36.9v-23.1z"/><path id="XMLID_2175_" d="m211 431v23.1c0 20.4-16.5 36.9-36.9 36.9h-116.2c-20.4 0-36.9-16.5-36.9-36.9v-23.1z"/><path id="XMLID_2174_" d="m211 207.9v23.1h-190v-23.1c0-20.4 16.5-36.9 36.9-36.9h116.1c20.5 0 37 16.5 37 36.9z"/></g><path id="XMLID_2173_" d="m466 391c8.3 0 15 6.7 15 15s-6.7 15-15 15-15-6.7-15-15 6.7-15 15-15z"/><path id="XMLID_2172_" d="m381 471c5.5 0 10 4.5 10 10s-4.5 10-10 10-10-4.5-10-10 4.5-10 10-10z"/><path id="XMLID_2171_" d="m271 391c5.5 0 10 4.5 10 10s-4.5 10-10 10-10-4.5-10-10 4.5-10 10-10z"/><path id="XMLID_2170_" d="m251 101c5.5 0 10 4.5 10 10s-4.5 10-10 10-10-4.5-10-10 4.5-10 10-10z"/><path id="XMLID_2169_" d="m176 51c8.3 0 15 6.7 15 15s-6.7 15-15 15-15-6.7-15-15 6.7-15 15-15z"/><path id="XMLID_2168_" d="m51 61c5.5 0 10 4.5 10 10s-4.5 10-10 10-10-4.5-10-10 4.5-10 10-10z"/><path id="XMLID_2363_" d="m174.1 501h-116.2c-25.8 0-46.9-21.1-46.9-46.9v-246.2c0-25.9 21.1-46.9 46.9-46.9h116.1c25.9 0 46.9 21.1 46.9 46.9v246.1c.1 25.9-21 47-46.8 47zm-116.2-320c-14.8 0-26.9 12.1-26.9 26.9v246.1c0 14.9 12.1 26.9 26.9 26.9h116.1c14.9 0 26.9-12.1 26.9-26.9v-246.1c0-14.9-12.1-26.9-26.9-26.9z"/><path id="XMLID_2165_" d="m211 241h-190c-5.5 0-10-4.5-10-10s4.5-10 10-10h190c5.5 0 10 4.5 10 10s-4.5 10-10 10z"/><path id="XMLID_2164_" d="m211 441h-190c-5.5 0-10-4.5-10-10s4.5-10 10-10h190c5.5 0 10 4.5 10 10s-4.5 10-10 10z"/><path id="XMLID_2358_" d="m454.1 351h-116.2c-25.9 0-46.9-21.1-46.9-46.9v-246.2c0-25.9 21.1-46.9 46.9-46.9h116.1c25.9 0 46.9 21.1 46.9 46.9v246.1c.1 25.9-21 47-46.8 47zm-116.2-320c-14.8 0-26.9 12.1-26.9 26.9v246.1c0 14.9 12.1 26.9 26.9 26.9h116.1c14.9 0 26.9-12.1 26.9-26.9v-246.1c0-14.9-12.1-26.9-26.9-26.9z"/><path id="XMLID_2161_" d="m491 91h-190c-5.5 0-10-4.5-10-10s4.5-10 10-10h190c5.5 0 10 4.5 10 10s-4.5 10-10 10z"/><path id="XMLID_2160_" d="m491 291h-190c-5.5 0-10-4.5-10-10s4.5-10 10-10h190c5.5 0 10 4.5 10 10s-4.5 10-10 10z"/><path id="XMLID_2159_" d="m217.8 351h-76.8c-5.5 0-10-4.5-10-10s4.5-10 10-10h76.8c12.8 0 23.2-10.4 23.2-23.2v-83.5c0-23.8 19.4-43.2 43.2-43.2h126.8c5.5 0 10 4.5 10 10s-4.5 10-10 10h-126.8c-12.8 0-23.2 10.4-23.2 23.2v83.5c0 23.8-19.4 43.2-43.2 43.2z"/><path id="XMLID_2158_" d="m383.9 203.9 12.9-12.9-12.9-12.9c-9.3-9.3 4.8-23.5 14.1-14.1l20 20c3.9 3.9 3.9 10.2 0 14.1l-20 20c-9.3 9.3-23.4-4.8-14.1-14.2z"/><path id="XMLID_1446_" d="m111 381c-22.1 0-40-17.9-40-40s17.9-40 40-40 40 17.9 40 40-17.9 40-40 40zm0-60c-11 0-20 9-20 20s9 20 20 20 20-9 20-20-9-20-20-20z"/></g></g></svg>