<svg id="Layer_1" enable-background="new 0 0 256 256" height="512" viewBox="0 0 256 256" width="512" xmlns="http://www.w3.org/2000/svg"><g><g><g><path d="m29.22 181.78c-7.535 0-13.665-6.13-13.665-13.665v-123.776c0-7.535 6.13-13.665 13.665-13.665h191.93c7.535 0 13.665 6.13 13.665 13.665v123.776c0 7.535-6.13 13.665-13.665 13.665z" fill="#63bce7"/></g></g><g><g><path d="m226.406 168.115c0 2.891-2.365 5.256-5.256 5.256h-191.93c-2.891 0-5.256-2.365-5.256-5.256v-123.777c0-2.891 2.365-5.256 5.256-5.256h191.93c2.891 0 5.256 2.365 5.256 5.256z" fill="#f8af23"/></g></g><g><g><path d="m32.405 39.079v134.293h-3.185c-2.891 0-5.256-2.365-5.256-5.256v-123.781c0-2.891 2.365-5.256 5.256-5.256z" fill="#f87023"/></g></g><g><g><path d="m217.965 39.079v134.293h3.185c2.891 0 5.256-2.365 5.256-5.256v-123.781c0-2.891-2.365-5.256-5.256-5.256z" fill="#f8d323"/></g></g><g><g><path d="m86.994 203.938h76.383v9.197h-76.383z" fill="#63bce7"/></g></g><g><g><path d="m97.856 181.78h54.659v22.158h-54.659z" fill="#f46275"/></g></g><g><g><path d="m86.994 203.939h8.441v9.197h-8.441z" fill="#6377e7"/></g></g><g><g><path d="m152.515 181.78h-54.659v.001 22.158h8.44v-13.718h46.219z" fill="#f43075"/></g></g><g><g><g><path d="m42.891 53.155c0 2.467-2 4.467-4.467 4.467-2.467 0-4.467-2-4.467-4.467 0-2.467 2-4.467 4.467-4.467 2.466-.001 4.467 1.999 4.467 4.467z" fill="#f46275"/></g></g><g><g><path d="m56.65 53.155c0 2.467-2 4.467-4.467 4.467-2.467 0-4.467-2-4.467-4.467 0-2.467 2-4.467 4.467-4.467 2.467-.001 4.467 1.999 4.467 4.467z" fill="#f46275"/></g></g><g><g><path d="m70.409 53.155c0 2.467-2 4.467-4.467 4.467-2.467 0-4.467-2-4.467-4.467 0-2.467 2-4.467 4.467-4.467 2.467-.001 4.467 1.999 4.467 4.467z" fill="#f46275"/></g></g></g><g><g><path d="m107.945 133.838h132.5v79.297h-132.5z" fill="#f46275"/></g></g><g><g><path d="m107.945 133.838h33.759v79.297h-33.759z" fill="#63bce7"/></g></g><g><g><path d="m107.945 133.837h8.44v79.3h-8.44z" fill="#6377e7"/></g></g><g><g><path d="m141.704 133.837h8.44v79.3h-8.44z" fill="#f43075"/></g></g><g><g><path d="m232.005 133.837h8.44v79.3h-8.44z" fill="#f48875"/></g></g><g><g><g><path d="m134.37 147.888c0 2.485-2.015 4.5-4.5 4.5h-10.333c-2.485 0-4.5-2.015-4.5-4.5 0-2.485 2.015-4.5 4.5-4.5h10.333c2.486 0 4.5 2.015 4.5 4.5z" fill="#f8af23"/></g></g><g><g><path d="m134.37 199.084c0 2.485-2.015 4.5-4.5 4.5h-10.333c-2.485 0-4.5-2.015-4.5-4.5 0-2.485 2.015-4.5 4.5-4.5h10.333c2.486 0 4.5 2.015 4.5 4.5z" fill="#f8af23"/></g></g></g><g><g><path d="m36.956 129.577h17.387v17.387h-17.387z" fill="#f8af23"/></g></g><g><g><circle cx="107.838" cy="96.759" fill="#f46275" r="17.669"/></g></g><g><g><path d="m133.116 79.09h35.339v35.339h-35.339z" fill="#63bce7"/></g></g><g><g><path d="m173.212 106.595-22.426-9.836 9.836 22.426 3.144-6.003 11.364 11.363 3.442-3.442-11.363-11.364z" fill="#f46275"/></g></g><g><g><path d="m232.12 197.914c0 1.323-1.073 2.396-2.396 2.396h-5c-1.323 0-2.396-1.073-2.396-2.396 0-1.323 1.073-2.396 2.396-2.396h5c1.324 0 2.396 1.073 2.396 2.396z" fill="#f8af23"/></g></g><g><g><g><path d="m178.578 193.177h46.084v9.474h-46.084z" fill="#63bce7"/></g></g><g><g><path d="m156.324 192.447h22.254v10.934h-22.254z" fill="#f8af23"/></g></g><g><g><path d="m156.324 202.652-9.12-4.738 9.12-4.737z" fill="#63bce7"/></g></g><g><g><g><path d="m38.423 59.122c3.291 0 5.968-2.677 5.968-5.967s-2.677-5.967-5.968-5.967c-3.29 0-5.967 2.677-5.967 5.967s2.677 5.967 5.967 5.967zm0-8.934c1.637 0 2.968 1.331 2.968 2.967s-1.331 2.967-2.968 2.967c-1.636 0-2.967-1.331-2.967-2.967s1.331-2.967 2.967-2.967z" fill="#231f20"/></g></g><g><g><path d="m52.183 59.122c3.291 0 5.968-2.677 5.968-5.967s-2.677-5.967-5.968-5.967-5.968 2.677-5.968 5.967 2.677 5.967 5.968 5.967zm0-8.934c1.637 0 2.968 1.331 2.968 2.967s-1.331 2.967-2.968 2.967-2.968-1.331-2.968-2.967 1.331-2.967 2.968-2.967z" fill="#231f20"/></g></g><g><g><path d="m65.942 59.122c3.29 0 5.967-2.677 5.967-5.967s-2.677-5.967-5.967-5.967c-3.291 0-5.968 2.677-5.968 5.967s2.677 5.967 5.968 5.967zm0-8.934c1.636 0 2.967 1.331 2.967 2.967s-1.331 2.967-2.967 2.967c-1.637 0-2.968-1.331-2.968-2.967s1.332-2.967 2.968-2.967z" fill="#231f20"/></g></g><g><g><path d="m214.893 64.372h-180.937c-.828 0-1.5.671-1.5 1.5s.672 1.5 1.5 1.5h180.937c.828 0 1.5-.671 1.5-1.5s-.672-1.5-1.5-1.5z" fill="#231f20"/></g></g><g><g><path d="m214.893 51.655h-9.643c-.828 0-1.5.671-1.5 1.5s.672 1.5 1.5 1.5h9.643c.828 0 1.5-.671 1.5-1.5s-.672-1.5-1.5-1.5z" fill="#231f20"/></g></g><g><g><path d="m82.69 57.988h95.826c2.665 0 4.833-2.168 4.833-4.833s-2.168-4.833-4.833-4.833h-95.826c-2.665 0-4.834 2.168-4.834 4.833s2.169 4.833 4.834 4.833zm0-6.667h95.826c1.011 0 1.833.822 1.833 1.833s-.822 1.833-1.833 1.833h-95.826c-1.012 0-1.834-.822-1.834-1.833s.823-1.833 1.834-1.833z" fill="#231f20"/></g></g><g><g><path d="m119.537 153.888h10.333c3.309 0 6-2.691 6-6s-2.691-6-6-6h-10.333c-3.309 0-6 2.691-6 6s2.692 6 6 6zm0-9h10.333c1.654 0 3 1.346 3 3s-1.346 3-3 3h-10.333c-1.654 0-3-1.346-3-3s1.346-3 3-3z" fill="#231f20"/></g></g><g><g><path d="m119.537 205.084h10.333c3.309 0 6-2.691 6-6s-2.691-6-6-6h-10.333c-3.309 0-6 2.691-6 6s2.692 6 6 6zm0-9h10.333c1.654 0 3 1.346 3 3s-1.346 3-3 3h-10.333c-1.654 0-3-1.346-3-3s1.346-3 3-3z" fill="#231f20"/></g></g><g><g><path d="m115.037 166.986h19.333c.828 0 1.5-.671 1.5-1.5s-.672-1.5-1.5-1.5h-19.333c-.828 0-1.5.671-1.5 1.5s.672 1.5 1.5 1.5z" fill="#231f20"/></g></g><g><g><path d="m115.037 182.986h19.333c.828 0 1.5-.671 1.5-1.5s-.672-1.5-1.5-1.5h-19.333c-.828 0-1.5.671-1.5 1.5s.672 1.5 1.5 1.5z" fill="#231f20"/></g></g><g><g><path d="m35.456 128.077v1.5 18.887h8.693v8.694h20.388v-18.887-1.5-61.194h-29.081zm5.121 17.387 12.267-12.266v12.266zm20.96 8.694h-14.388v-5.694h8.694v-8.693h5.693v14.387zm-23.081-75.581h23.081v58.194h-5.693v-8.694h-17.388zm0 52.5h12.267l-12.267 12.266z" fill="#231f20"/></g></g><g><g><path d="m107.838 77.589c-10.569 0-19.169 8.6-19.169 19.169s8.6 19.169 19.169 19.169c10.57 0 19.17-8.6 19.17-19.169s-8.6-19.169-19.17-19.169zm0 35.339c-8.916 0-16.169-7.253-16.169-16.169s7.253-16.169 16.169-16.169 16.17 7.253 16.17 16.169-7.254 16.169-16.17 16.169z" fill="#231f20"/></g></g><g><g><path d="m169.712 110.121 4.196-2.198c.511-.268.823-.804.803-1.38-.02-.577-.368-1.09-.896-1.322l-3.859-1.693v-24.439c0-.829-.672-1.5-1.5-1.5h-35.339c-.828 0-1.5.671-1.5 1.5v35.339c0 .829.672 1.5 1.5 1.5h24.439l1.693 3.859c.232.528.746.876 1.322.896.567.023 1.112-.292 1.381-.803l2.196-4.195 9.922 9.92c.293.293.677.439 1.061.439s.768-.146 1.061-.439l3.442-3.442c.586-.585.586-1.536 0-2.121zm-35.096 2.807v-32.339h32.339v21.623l-15.566-6.827c-.564-.248-1.226-.125-1.663.313-.438.437-.562 1.097-.313 1.663l6.828 15.567zm40.514 9.496-10.304-10.303c-.283-.284-.666-.439-1.061-.439-.075 0-.151.006-.227.017-.472.072-.881.364-1.103.787l-1.695 3.237-7.037-16.046 16.047 7.038-3.238 1.696c-.423.221-.715.631-.786 1.103-.072.472.084.949.422 1.287l10.303 10.303z" fill="#231f20"/></g></g><g><g><path d="m35.768 213.137c0-.829-.672-1.5-1.5-1.5h-8.344c-.828 0-1.5.671-1.5 1.5s.672 1.5 1.5 1.5h8.344c.828 0 1.5-.672 1.5-1.5z" fill="#231f20"/></g></g><g><g><path d="m202.869 223.826h-148.726c-.828 0-1.5.671-1.5 1.5s.672 1.5 1.5 1.5h148.727c.828 0 1.5-.671 1.5-1.5s-.673-1.5-1.501-1.5z" fill="#231f20"/></g></g><g><g><path d="m45.133 223.826h-8.344c-.828 0-1.5.671-1.5 1.5s.672 1.5 1.5 1.5h8.344c.828 0 1.5-.671 1.5-1.5s-.672-1.5-1.5-1.5z" fill="#231f20"/></g></g><g><g><path d="m220.428 223.826h-8.346c-.828 0-1.5.671-1.5 1.5s.672 1.5 1.5 1.5h8.346c.828 0 1.5-.671 1.5-1.5s-.672-1.5-1.5-1.5z" fill="#231f20"/></g></g><g><g><path d="m240.445 132.337h-4.13v-87.998c0-8.362-6.803-15.165-15.165-15.165h-191.93c-8.362 0-15.165 6.803-15.165 15.165v123.776c0 8.362 6.803 15.165 15.165 15.165h67.136v19.158h-9.361c-.828 0-1.5.671-1.5 1.5v7.699h-41.419c-.828 0-1.5.671-1.5 1.5s.672 1.5 1.5 1.5l196.369-.002c.828 0 1.5-.671 1.5-1.5v-79.297c0-.829-.672-1.501-1.5-1.501zm-134 79.298h-17.951v-6.197h9.361 8.59zm0-9.197h-7.09v-19.158h7.09zm0-22.158h-8.59-68.635c-6.708 0-12.165-5.457-12.165-12.165v-123.776c0-6.708 5.457-12.165 12.165-12.165h191.93c6.708 0 12.165 5.457 12.165 12.165v87.999h-5.409v-88c0-3.725-3.03-6.755-6.756-6.755h-191.93c-3.726 0-6.756 3.03-6.756 6.755v123.777c0 3.725 3.03 6.755 6.756 6.755h77.226v5.41zm33.759 31.355h-30.759v-76.297h30.759zm-32.259-79.298c-.828 0-1.5.671-1.5 1.5v38.033h-77.225c-2.071 0-3.756-1.685-3.756-3.755v-123.777c0-2.071 1.685-3.755 3.756-3.755h191.93c2.071 0 3.756 1.685 3.756 3.755v87.999h-83.202zm131 79.298h-95.741v-76.297h83.197.005s.003 0 .005 0h12.534z" fill="#231f20"/></g></g><g><g><path d="m226.162 193.177c0-.829-.672-1.5-1.5-1.5h-44.803c-.262-.435-.735-.729-1.281-.729h-22.254c-.763 0-1.386.572-1.481 1.309l-8.331 4.327c-.497.258-.809.771-.809 1.331s.312 1.073.809 1.331l8.331 4.327c.095.737.718 1.308 1.481 1.308h22.254c.545 0 1.018-.294 1.281-.729h44.803c.828 0 1.5-.671 1.5-1.5v-.841h3.562c2.148 0 3.896-1.748 3.896-3.896s-1.747-3.896-3.896-3.896h-3.562zm-71.338 7.005-4.366-2.268 4.366-2.268zm22.254 1.699h-19.254v-7.934h19.254zm46.084-.73h-43.084v-6.475h43.084zm6.563-4.132c.494 0 .896.402.896.896s-.401.896-.896.896h-3.562v-1.792z" fill="#231f20"/></g></g></g></g></g></svg>