<svg id="Layer_1" viewBox="0 0 128 128" xmlns="http://www.w3.org/2000/svg" data-name="Layer 1"><path d="m20 4h88v12h-88z" fill="#fc785e"/><path d="m98 12h4a2 2 0 0 0 0-4h-4a2 2 0 0 0 0 4z" fill="#2d4356"/><path d="m86 12h4a2 2 0 0 0 0-4h-4a2 2 0 0 0 0 4z" fill="#2d4356"/><path d="m108 0h-88a3.99887 3.99887 0 0 0 -4 4v120a3.99891 3.99891 0 0 0 4 4h88a3.99891 3.99891 0 0 0 4-4v-120a3.99887 3.99887 0 0 0 -4-4zm0 124h-88v-104h88zm0-108h-88v-12h88z" fill="#2d4356"/><path d="m20 20v104h88v-104zm4 8a3.99887 3.99887 0 0 1 4-4h30a3.99887 3.99887 0 0 1 4 4v26a3.99891 3.99891 0 0 1 -4 4h-30a3.99891 3.99891 0 0 1 -4-4zm22 84h-20a2 2 0 0 1 0-4h20a2 2 0 0 1 0 4zm2-12a3.99891 3.99891 0 0 1 -4 4h-16a3.99891 3.99891 0 0 1 -4-4v-34a3.99887 3.99887 0 0 1 4-4h16a3.99887 3.99887 0 0 1 4 4zm26 12h-20a2 2 0 0 1 0-4h20a2 2 0 0 1 0 4zm2-12a3.99891 3.99891 0 0 1 -4 4h-16a3.99891 3.99891 0 0 1 -4-4v-34a3.99887 3.99887 0 0 1 4-4h16a3.99887 3.99887 0 0 1 4 4zm26 12h-20a2 2 0 0 1 0-4h20a2 2 0 0 1 0 4zm2-12a3.99891 3.99891 0 0 1 -4 4h-16a3.99891 3.99891 0 0 1 -4-4v-34a3.99887 3.99887 0 0 1 4-4h16a3.99887 3.99887 0 0 1 4 4zm0-46a3.99891 3.99891 0 0 1 -4 4h-30a3.96417 3.96417 0 0 1 -2.07-.59 1.98911 1.98911 0 0 1 -1.04-.63 1.90619 1.90619 0 0 1 -.47-1.03 3.96031 3.96031 0 0 1 -.42-1.75v-26a3.99887 3.99887 0 0 1 4-4h30a3.96412 3.96412 0 0 1 2.07.59 1.92789 1.92789 0 0 1 1.04.63 1.90637 1.90637 0 0 1 .47 1.03 3.96011 3.96011 0 0 1 .42 1.75z" fill="#ffdb80"/><path d="m44 62h-16a3.99887 3.99887 0 0 0 -4 4v34a3.99891 3.99891 0 0 0 4 4h16a3.99891 3.99891 0 0 0 4-4v-34a3.99887 3.99887 0 0 0 -4-4zm0 38h-16v-34h16z" fill="#2d4356"/><path d="m28 66h16v34h-16z" fill="#e1ebf4"/><path d="m72 62h-16a3.99887 3.99887 0 0 0 -4 4v34a3.99891 3.99891 0 0 0 4 4h16a3.99891 3.99891 0 0 0 4-4v-34a3.99887 3.99887 0 0 0 -4-4zm0 38h-16v-34h16z" fill="#2d4356"/><path d="m56 66h16v34h-16z" fill="#e1ebf4"/><path d="m100 62h-16a3.99887 3.99887 0 0 0 -4 4v34a3.99891 3.99891 0 0 0 4 4h16a3.99891 3.99891 0 0 0 4-4v-34a3.99887 3.99887 0 0 0 -4-4zm0 38h-16v-34h16z" fill="#2d4356"/><path d="m84 66h16v34h-16z" fill="#e1ebf4"/><g fill="#2d4356"><path d="m48 110a2.00591 2.00591 0 0 1 -2 2h-20a2 2 0 0 1 0-4h20a2.00587 2.00587 0 0 1 2 2z"/><path d="m26 120h20a2 2 0 0 0 0-4h-20a2 2 0 0 0 0 4z"/><path d="m76 110a2.00591 2.00591 0 0 1 -2 2h-20a2 2 0 0 1 0-4h20a2.00587 2.00587 0 0 1 2 2z"/><path d="m74 116h-20a2 2 0 0 0 0 4h20a2 2 0 0 0 0-4z"/><path d="m104 110a2.00591 2.00591 0 0 1 -2 2h-20a2 2 0 0 1 0-4h20a2.00587 2.00587 0 0 1 2 2z"/><path d="m102 116h-20a2 2 0 0 0 0 4h20a2 2 0 0 0 0-4z"/><path d="m58 24h-30a3.99887 3.99887 0 0 0 -4 4v26a3.99891 3.99891 0 0 0 4 4h30a3.99891 3.99891 0 0 0 4-4v-26a3.99887 3.99887 0 0 0 -4-4zm-3.05 4-11.91 10.38-11.86-10.38zm-26.95 2.53 12 10.5-12 10.45zm3.19 23.47 11.84-10.31 11.79 10.31zm26.81-2.53-11.92-10.43 11.92-10.39z"/></g><path d="m54.95 28-11.91 10.38-11.86-10.38z" fill="#81d9e3"/><path d="m40 41.03-12 10.45v-20.95z" fill="#81d9e3"/><path d="m54.82 54h-23.63l11.84-10.31z" fill="#81d9e3"/><path d="m58 30.65v20.82l-11.92-10.43z" fill="#81d9e3"/><path d="m103.58 26.25a1.90637 1.90637 0 0 0 -.47-1.03 1.92789 1.92789 0 0 0 -1.04-.63 3.96412 3.96412 0 0 0 -2.07-.59h-30a3.99887 3.99887 0 0 0 -4 4v26a3.96031 3.96031 0 0 0 .42 1.75 1.90619 1.90619 0 0 0 .47 1.03 1.98911 1.98911 0 0 0 1.04.63 3.96417 3.96417 0 0 0 2.07.59h30a3.99891 3.99891 0 0 0 4-4v-26a3.96011 3.96011 0 0 0 -.42-1.75zm-6.7 1.75-12.19 10.62-12.59-10.62zm-26.88 3.46 11.64 9.82-11.64 10.14zm3.12 22.54 11.61-10.11 11.98 10.11zm26.88-2.46-12.22-10.31 12.22-10.65z" fill="#2d4356"/><path d="m96.88 28-12.19 10.62-12.59-10.62z" fill="#81d9e3"/><path d="m100 30.58v20.96l-12.22-10.31z" fill="#81d9e3"/><path d="m96.71 54h-23.59l11.61-10.11z" fill="#81d9e3"/><path d="m81.64 41.28-11.64 10.14v-19.96z" fill="#81d9e3"/><path d="m20 14h88v2h-88z" fill="#a54b3f" opacity=".5"/><path d="m20 4h88v2h-88z" fill="#f9dbd7" opacity=".3"/><path d="m20 122h88v2h-88z" fill="#ad9359" opacity=".45"/><path d="m28 66h16v2h-16z" fill="#fff" opacity=".5"/><path d="m28 98h16v2h-16z" fill="#9fa5aa" opacity=".5"/><path d="m56 66h16v2h-16z" fill="#fff" opacity=".5"/><path d="m56 98h16v2h-16z" fill="#9fa5aa" opacity=".5"/><path d="m84 66h16v2h-16z" fill="#fff" opacity=".5"/><path d="m84 98h16v2h-16z" fill="#9fa5aa" opacity=".5"/></svg>